Coordinates
version=1
nRows=35
nColumns=18
inDegrees=yes

Units are S.I. units (second, meters, Newtons, ...)
Angles are in degrees.

endheader
time	ground_thorax_rot_x	ground_thorax_rot_y	ground_thorax_rot_z	ground_thorax_tx	ground_thorax_ty	ground_thorax_tz	clav_prot	clav_elev	scapula_abduction	scapula_elevation	scapula_upward_rot	scapula_winging	plane_elv	shoulder_elv	axial_rot	elbow_flexion	pro_sup
      2.05000000	      0.90708462	     -5.01547742	     -9.44847909	     -0.00423131	      0.00403036	     -0.00078352	    -20.32030473	     -0.55912410	      1.90420119	     -5.00393720	     30.30308835	     -0.16635300	     58.84095711	     49.34086855	    -17.21761588	      0.00000000	     34.32000000
      2.06000000	      0.76615158	     -5.09122002	     -9.70625432	     -0.00423131	      0.00403036	     -0.00078352	    -20.30172307	     -0.84772326	      2.37870266	     -5.30578280	     30.80621573	     -0.18863545	     58.33856672	     49.63641669	    -16.70503461	      0.00000000	     34.32000000
      2.07000000	      0.56084199	     -5.33580706	     -9.72188364	     -0.00423131	      0.00403036	     -0.00078352	    -20.08622723	     -0.89937112	      2.85578258	     -5.35311510	     30.92207940	     -0.22037564	     58.44843995	     50.35311706	    -16.14138373	      0.00000000	     34.32000000
      2.08000000	      0.45999305	     -5.36074287	     -9.67192057	     -0.00423131	      0.00403036	     -0.00078352	    -20.14202257	     -0.75270653	      2.92341845	     -5.29821962	     31.19736052	     -0.32082646	     58.98393069	     50.92338578	    -16.25172801	      0.00000000	     34.32000000
      2.09000000	      0.48037887	     -5.42169234	     -9.84442393	     -0.00423131	      0.00403036	     -0.00078352	    -20.21840100	     -0.51613134	      3.12334700	     -5.22421291	     31.73069995	     -0.50237556	     59.61409920	     51.50325708	    -16.73674190	      0.00000000	     34.32000000
      2.10000000	      0.78654695	     -5.21071583	     -9.66194500	     -0.00423131	      0.00403036	     -0.00078352	    -20.53373562	      0.22330383	      2.97593455	     -4.84245971	     32.53374221	     -0.86950717	     60.11487596	     51.57340655	    -17.04283870	      0.00000000	     34.32000000
      2.11000000	      0.50188832	     -5.12891208	     -9.48756707	     -0.00423131	      0.00403036	     -0.00078352	    -20.58347303	      0.24812854	      2.99529141	     -4.85337840	     32.68618551	     -0.90453748	     60.04589871	     51.82479561	    -17.03853145	      0.00000000	     34.32000000
      2.12000000	      0.51379081	     -5.09017628	     -9.77660368	     -0.00423131	      0.00403036	     -0.00078352	    -20.62806201	      0.06572308	      3.46656633	     -5.10228555	     33.35681992	     -0.98717584	     59.20624460	     52.22521928	    -16.21837302	      0.00000000	     34.32000000
      2.13000000	      0.60386308	     -5.13781592	     -9.90621187	     -0.00423131	      0.00403036	     -0.00078352	    -20.58849558	      0.05044069	      3.91875282	     -5.19490559	     33.85957567	     -1.09022997	     58.81707622	     52.65649546	    -15.94162153	      0.00000000	     34.32000000
      2.14000000	      0.67951953	     -5.31699525	     -9.74855474	     -0.00423131	      0.00403036	     -0.00078352	    -20.45959323	      0.39309045	      4.37825651	     -5.00878736	     34.28155054	     -1.29357540	     59.15841312	     52.75035510	    -14.62436511	      0.00000000	     34.32000000
      2.15000000	      0.94471902	     -5.39859104	     -9.78197271	     -0.00423131	      0.00403036	     -0.00078352	    -20.66441489	      0.87209060	      4.40628350	     -4.78197530	     34.95649399	     -1.55445020	     59.81184917	     53.21009380	    -15.35853895	      0.00000000	     34.32000000
      2.16000000	      0.81132290	     -5.49632310	     -9.70060097	     -0.00423131	      0.00403036	     -0.00078352	    -20.79753136	      1.19502667	      4.42354729	     -4.62569115	     35.39712515	     -1.72531067	     60.37783798	     53.47372746	    -14.89341283	      0.00000000	     34.32000000
      2.17000000	      0.69369006	     -5.49140417	     -9.75749306	     -0.00423131	      0.00403036	     -0.00078352	    -20.90279484	      1.44928339	      4.47476775	     -4.51003452	     35.79373690	     -1.86834705	     60.74090511	     54.06696067	    -14.69831702	      0.00000000	     34.32000000
      2.18000000	      0.93198413	     -5.39286429	     -9.66130057	     -0.00423131	      0.00403036	     -0.00078352	    -21.03589818	      2.15951525	      4.50346101	     -4.09662092	     36.38316281	     -2.16866195	     60.97799933	     54.58594922	    -14.98042370	      0.00000000	     34.32000000
      2.19000000	      0.61071167	     -5.32290378	     -9.51064888	     -0.00423131	      0.00403036	     -0.00078352	    -21.07434678	      2.20146041	      4.53477639	     -4.09043440	     36.52644322	     -2.20515686	     60.96504075	     54.88245439	    -14.98012736	      0.00000000	     34.32000000
      2.20000000	      0.52777422	     -5.37731984	     -9.74979346	     -0.00423131	      0.00403036	     -0.00078352	    -21.22148639	      2.11310918	      4.52956531	     -4.20720408	     36.82480375	     -2.23161821	     61.05234161	     55.49189032	    -14.54055749	      0.00000000	     34.32000000
      2.21000000	      0.51582994	     -5.38776316	     -9.81942756	     -0.00423131	      0.00403036	     -0.00078352	    -21.44960539	      2.12831395	      4.48602465	     -4.27879304	     37.29378750	     -2.31376040	     61.23929197	     55.65937218	    -14.32822130	      0.00000000	     34.32000000
      2.22000000	      0.33674179	     -5.51887990	     -9.75904629	     -0.00423131	      0.00403036	     -0.00078352	    -21.42903739	      2.08196947	      4.55902933	     -4.31553780	     37.32458777	     -2.30846916	     61.46255895	     56.04506967	    -13.65124931	      0.00000000	     34.32000000
      2.23000000	      0.92365436	     -5.47122423	     -9.70761106	     -0.00423131	      0.00403036	     -0.00078352	    -21.79654102	      2.95080732	      4.52886379	     -3.87167400	     38.42193510	     -2.72649457	     61.83996865	     56.12465530	    -14.16690374	      0.00000000	     34.32000000
      2.24000000	      0.95026722	     -5.53155336	     -9.67665830	     -0.00423131	      0.00403036	     -0.00078352	    -21.93973446	      3.31126297	      4.44283535	     -3.67001954	     38.76345733	     -2.87431787	     62.26288721	     56.74387377	    -13.59044601	      0.00000000	     34.32000000
      2.25000000	      0.65244097	     -5.53677796	     -9.76260078	     -0.00423131	      0.00403036	     -0.00078352	    -22.03061889	      3.27897580	      4.22167079	     -3.68602191	     38.67679020	     -2.84682664	     62.35766413	     57.55107797	    -13.07915041	      0.00000000	     34.32000000
      2.26000000	      0.52543757	     -5.44964502	     -9.85198376	     -0.00423131	      0.00403036	     -0.00078352	    -22.27211346	      3.42543765	      3.88932405	     -3.61954825	     38.85204948	     -2.90835340	     62.38133029	     58.11960870	    -12.85402561	      0.00000000	     34.32000000
      2.27000000	      0.32504175	     -5.56805859	     -9.77316931	     -0.00423131	      0.00403036	     -0.00078352	    -22.32063710	      3.49910935	      3.85021523	     -3.58161799	     38.93814261	     -2.94099202	     62.31724182	     58.30520685	    -12.86114703	      0.00000000	     34.32000000
      2.28000000	      0.31898343	     -5.61685760	     -9.92337957	     -0.00423131	      0.00403036	     -0.00078352	    -22.38732241	      3.27804681	      3.80284799	     -3.74482659	     38.94796949	     -2.88797938	     62.10576417	     58.90885810	    -12.18250522	      0.00000000	     34.32000000
      2.29000000	      0.77928255	     -5.96352883	     -9.84964571	     -0.00423131	      0.00403036	     -0.00078352	    -22.32403140	      3.68417868	      4.47903062	     -3.56850050	     39.80260413	     -3.14658475	     61.67226279	     58.93376327	    -12.88667846	      0.00000000	     34.32000000
      2.30000000	      0.56860729	     -6.05601169	     -9.95045350	     -0.00423131	      0.00403036	     -0.00078352	    -22.42400244	      3.34667054	      4.49824686	     -3.83221506	     39.92968601	     -3.08555403	     61.66365552	     59.51287936	    -12.46504336	      0.00000000	     34.32000000
      2.31000000	      0.26118651	     -6.11563420	     -9.74342525	     -0.00423131	      0.00403036	     -0.00078352	    -22.49036123	      3.38276717	      4.50973580	     -3.83348925	     40.10464524	     -3.12479704	     61.63375358	     59.83572187	    -12.46786650	      0.00000000	     34.32000000
      2.32000000	      0.19606938	     -6.13511483	     -9.98191314	     -0.00423131	      0.00403036	     -0.00078352	    -22.66423976	      3.32439497	      4.38630162	     -3.91305215	     40.31644066	     -3.14528122	     61.53526402	     60.83813372	    -12.05386568	      0.00000000	     34.32000000
      2.33000000	      0.26150858	     -6.03067490	    -10.14620640	     -0.00423131	      0.00403036	     -0.00078352	    -22.97496780	      3.39825112	      4.23312937	     -3.94649672	     40.84087408	     -3.25363714	     61.19567788	     61.18139519	    -11.86340030	      0.00000000	     34.32000000
      2.34000000	      0.11043773	     -6.10766727	    -10.18855898	     -0.00423131	      0.00403036	     -0.00078352	    -23.03940198	      3.25761774	      4.17862401	     -4.05367811	     40.86627151	     -3.22191332	     60.94707165	     61.65414394	    -11.38866686	      0.00000000	     34.32000000
      2.35000000	     -0.07763482	     -6.28594006	    -10.20309608	     -0.00423131	      0.00403036	     -0.00078352	    -23.07329193	      3.16856347	      4.17118293	     -4.12356473	     40.90103761	     -3.20464640	     60.98534336	     62.24899310	    -10.98345466	      0.00000000	     34.32000000
      2.36000000	      0.81839154	     -7.10280846	    -10.03992834	     -0.00423131	      0.00403036	     -0.00078352	    -22.87560978	      4.57959512	      5.40933537	     -3.30654828	     42.49658630	     -3.82047490	     60.55338497	     62.29210744	    -13.85635714	      0.00000000	     34.32000000
      2.37000000	      0.49170848	     -7.02838838	    -10.17625640	     -0.00423131	      0.00403036	     -0.00078352	    -23.17917554	      4.40710004	      4.94492316	     -3.45051839	     42.53004310	     -3.78719926	     60.75434392	     63.08961689	    -13.55349541	      0.00000000	     34.32000000
      2.38000000	      0.36468912	     -6.86825871	    -10.27566356	     -0.00423131	      0.00403036	     -0.00078352	    -23.52511489	      4.37970970	      4.58238501	     -3.52604584	     42.83218093	     -3.83472670	     60.59636345	     63.52726038	    -13.26685388	      0.00000000	     34.32000000
      2.39000000	      0.29154972	     -6.75717811	    -10.32870353	     -0.00423131	      0.00403036	     -0.00078352	    -23.71150176	      4.37748197	      4.49278151	     -3.57329008	     43.12895897	     -3.88616312	     60.18142298	     63.79866931	    -12.80914417	      0.00000000	     34.32000000
